<?xml version="1.0" encoding="utf-8"?>
<svg width="516" height="516" viewBox="0 0 516 516" xmlns="http://www.w3.org/2000/svg" xmlns:xlink="http://www.w3.org/1999/xlink">
<defs>
<rect id="p" width="12" height="12" />
</defs>
<g transform="scale(1.303030)">
<use x="24" y="24" xlink:href="#p" fill="#ffffff" />
<use x="36" y="24" xlink:href="#p" fill="#ffffff" />
<use x="48" y="24" xlink:href="#p" fill="#ffffff" />
<use x="60" y="24" xlink:href="#p" fill="#ffffff" />
<use x="72" y="24" xlink:href="#p" fill="#ffffff" />
<use x="84" y="24" xlink:href="#p" fill="#ffffff" />
<use x="96" y="24" xlink:href="#p" fill="#ffffff" />
<use x="120" y="24" xlink:href="#p" fill="#ffffff" />
<use x="132" y="24" xlink:href="#p" fill="#ffffff" />
<use x="144" y="24" xlink:href="#p" fill="#ffffff" />
<use x="156" y="24" xlink:href="#p" fill="#ffffff" />
<use x="228" y="24" xlink:href="#p" fill="#ffffff" />
<use x="252" y="24" xlink:href="#p" fill="#ffffff" />
<use x="264" y="24" xlink:href="#p" fill="#ffffff" />
<use x="288" y="24" xlink:href="#p" fill="#ffffff" />
<use x="300" y="24" xlink:href="#p" fill="#ffffff" />
<use x="312" y="24" xlink:href="#p" fill="#ffffff" />
<use x="324" y="24" xlink:href="#p" fill="#ffffff" />
<use x="336" y="24" xlink:href="#p" fill="#ffffff" />
<use x="348" y="24" xlink:href="#p" fill="#ffffff" />
<use x="360" y="24" xlink:href="#p" fill="#ffffff" />
<use x="24" y="36" xlink:href="#p" fill="#ffffff" />
<use x="96" y="36" xlink:href="#p" fill="#ffffff" />
<use x="120" y="36" xlink:href="#p" fill="#ffffff" />
<use x="144" y="36" xlink:href="#p" fill="#ffffff" />
<use x="156" y="36" xlink:href="#p" fill="#ffffff" />
<use x="180" y="36" xlink:href="#p" fill="#ffffff" />
<use x="216" y="36" xlink:href="#p" fill="#ffffff" />
<use x="228" y="36" xlink:href="#p" fill="#ffffff" />
<use x="240" y="36" xlink:href="#p" fill="#ffffff" />
<use x="252" y="36" xlink:href="#p" fill="#ffffff" />
<use x="288" y="36" xlink:href="#p" fill="#ffffff" />
<use x="360" y="36" xlink:href="#p" fill="#ffffff" />
<use x="24" y="48" xlink:href="#p" fill="#ffffff" />
<use x="48" y="48" xlink:href="#p" fill="#ffffff" />
<use x="60" y="48" xlink:href="#p" fill="#ffffff" />
<use x="72" y="48" xlink:href="#p" fill="#ffffff" />
<use x="96" y="48" xlink:href="#p" fill="#ffffff" />
<use x="120" y="48" xlink:href="#p" fill="#ffffff" />
<use x="168" y="48" xlink:href="#p" fill="#ffffff" />
<use x="180" y="48" xlink:href="#p" fill="#ffffff" />
<use x="204" y="48" xlink:href="#p" fill="#ffffff" />
<use x="216" y="48" xlink:href="#p" fill="#ffffff" />
<use x="240" y="48" xlink:href="#p" fill="#ffffff" />
<use x="288" y="48" xlink:href="#p" fill="#ffffff" />
<use x="312" y="48" xlink:href="#p" fill="#ffffff" />
<use x="324" y="48" xlink:href="#p" fill="#ffffff" />
<use x="336" y="48" xlink:href="#p" fill="#ffffff" />
<use x="360" y="48" xlink:href="#p" fill="#ffffff" />
<use x="24" y="60" xlink:href="#p" fill="#ffffff" />
<use x="48" y="60" xlink:href="#p" fill="#ffffff" />
<use x="60" y="60" xlink:href="#p" fill="#ffffff" />
<use x="72" y="60" xlink:href="#p" fill="#ffffff" />
<use x="96" y="60" xlink:href="#p" fill="#ffffff" />
<use x="120" y="60" xlink:href="#p" fill="#ffffff" />
<use x="132" y="60" xlink:href="#p" fill="#ffffff" />
<use x="180" y="60" xlink:href="#p" fill="#ffffff" />
<use x="240" y="60" xlink:href="#p" fill="#ffffff" />
<use x="252" y="60" xlink:href="#p" fill="#ffffff" />
<use x="288" y="60" xlink:href="#p" fill="#ffffff" />
<use x="312" y="60" xlink:href="#p" fill="#ffffff" />
<use x="324" y="60" xlink:href="#p" fill="#ffffff" />
<use x="336" y="60" xlink:href="#p" fill="#ffffff" />
<use x="360" y="60" xlink:href="#p" fill="#ffffff" />
<use x="24" y="72" xlink:href="#p" fill="#ffffff" />
<use x="48" y="72" xlink:href="#p" fill="#ffffff" />
<use x="60" y="72" xlink:href="#p" fill="#ffffff" />
<use x="72" y="72" xlink:href="#p" fill="#ffffff" />
<use x="96" y="72" xlink:href="#p" fill="#ffffff" />
<use x="120" y="72" xlink:href="#p" fill="#ffffff" />
<use x="132" y="72" xlink:href="#p" fill="#ffffff" />
<use x="144" y="72" xlink:href="#p" fill="#ffffff" />
<use x="156" y="72" xlink:href="#p" fill="#ffffff" />
<use x="168" y="72" xlink:href="#p" fill="#ffffff" />
<use x="192" y="72" xlink:href="#p" fill="#ffffff" />
<use x="216" y="72" xlink:href="#p" fill="#ffffff" />
<use x="240" y="72" xlink:href="#p" fill="#ffffff" />
<use x="252" y="72" xlink:href="#p" fill="#ffffff" />
<use x="288" y="72" xlink:href="#p" fill="#ffffff" />
<use x="312" y="72" xlink:href="#p" fill="#ffffff" />
<use x="324" y="72" xlink:href="#p" fill="#ffffff" />
<use x="336" y="72" xlink:href="#p" fill="#ffffff" />
<use x="360" y="72" xlink:href="#p" fill="#ffffff" />
<use x="24" y="84" xlink:href="#p" fill="#ffffff" />
<use x="96" y="84" xlink:href="#p" fill="#ffffff" />
<use x="132" y="84" xlink:href="#p" fill="#ffffff" />
<use x="144" y="84" xlink:href="#p" fill="#ffffff" />
<use x="168" y="84" xlink:href="#p" fill="#ffffff" />
<use x="204" y="84" xlink:href="#p" fill="#ffffff" />
<use x="216" y="84" xlink:href="#p" fill="#ffffff" />
<use x="252" y="84" xlink:href="#p" fill="#ffffff" />
<use x="264" y="84" xlink:href="#p" fill="#ffffff" />
<use x="288" y="84" xlink:href="#p" fill="#ffffff" />
<use x="360" y="84" xlink:href="#p" fill="#ffffff" />
<use x="24" y="96" xlink:href="#p" fill="#ffffff" />
<use x="36" y="96" xlink:href="#p" fill="#ffffff" />
<use x="48" y="96" xlink:href="#p" fill="#ffffff" />
<use x="60" y="96" xlink:href="#p" fill="#ffffff" />
<use x="72" y="96" xlink:href="#p" fill="#ffffff" />
<use x="84" y="96" xlink:href="#p" fill="#ffffff" />
<use x="96" y="96" xlink:href="#p" fill="#ffffff" />
<use x="120" y="96" xlink:href="#p" fill="#ffffff" />
<use x="144" y="96" xlink:href="#p" fill="#ffffff" />
<use x="168" y="96" xlink:href="#p" fill="#ffffff" />
<use x="192" y="96" xlink:href="#p" fill="#ffffff" />
<use x="216" y="96" xlink:href="#p" fill="#ffffff" />
<use x="240" y="96" xlink:href="#p" fill="#ffffff" />
<use x="264" y="96" xlink:href="#p" fill="#ffffff" />
<use x="288" y="96" xlink:href="#p" fill="#ffffff" />
<use x="300" y="96" xlink:href="#p" fill="#ffffff" />
<use x="312" y="96" xlink:href="#p" fill="#ffffff" />
<use x="324" y="96" xlink:href="#p" fill="#ffffff" />
<use x="336" y="96" xlink:href="#p" fill="#ffffff" />
<use x="348" y="96" xlink:href="#p" fill="#ffffff" />
<use x="360" y="96" xlink:href="#p" fill="#ffffff" />
<use x="120" y="108" xlink:href="#p" fill="#ffffff" />
<use x="132" y="108" xlink:href="#p" fill="#ffffff" />
<use x="144" y="108" xlink:href="#p" fill="#ffffff" />
<use x="156" y="108" xlink:href="#p" fill="#ffffff" />
<use x="180" y="108" xlink:href="#p" fill="#ffffff" />
<use x="192" y="108" xlink:href="#p" fill="#ffffff" />
<use x="216" y="108" xlink:href="#p" fill="#ffffff" />
<use x="228" y="108" xlink:href="#p" fill="#ffffff" />
<use x="36" y="120" xlink:href="#p" fill="#ffffff" />
<use x="48" y="120" xlink:href="#p" fill="#ffffff" />
<use x="72" y="120" xlink:href="#p" fill="#ffffff" />
<use x="96" y="120" xlink:href="#p" fill="#ffffff" />
<use x="108" y="120" xlink:href="#p" fill="#ffffff" />
<use x="132" y="120" xlink:href="#p" fill="#ffffff" />
<use x="144" y="120" xlink:href="#p" fill="#ffffff" />
<use x="204" y="120" xlink:href="#p" fill="#ffffff" />
<use x="228" y="120" xlink:href="#p" fill="#ffffff" />
<use x="240" y="120" xlink:href="#p" fill="#ffffff" />
<use x="288" y="120" xlink:href="#p" fill="#ffffff" />
<use x="312" y="120" xlink:href="#p" fill="#ffffff" />
<use x="324" y="120" xlink:href="#p" fill="#ffffff" />
<use x="336" y="120" xlink:href="#p" fill="#ffffff" />
<use x="348" y="120" xlink:href="#p" fill="#ffffff" />
<use x="360" y="120" xlink:href="#p" fill="#ffffff" />
<use x="24" y="132" xlink:href="#p" fill="#ffffff" />
<use x="36" y="132" xlink:href="#p" fill="#ffffff" />
<use x="72" y="132" xlink:href="#p" fill="#ffffff" />
<use x="132" y="132" xlink:href="#p" fill="#ffffff" />
<use x="144" y="132" xlink:href="#p" fill="#ffffff" />
<use x="168" y="132" xlink:href="#p" fill="#ffffff" />
<use x="192" y="132" xlink:href="#p" fill="#ffffff" />
<use x="204" y="132" xlink:href="#p" fill="#ffffff" />
<use x="216" y="132" xlink:href="#p" fill="#ffffff" />
<use x="240" y="132" xlink:href="#p" fill="#ffffff" />
<use x="276" y="132" xlink:href="#p" fill="#ffffff" />
<use x="336" y="132" xlink:href="#p" fill="#ffffff" />
<use x="360" y="132" xlink:href="#p" fill="#ffffff" />
<use x="24" y="144" xlink:href="#p" fill="#ffffff" />
<use x="60" y="144" xlink:href="#p" fill="#ffffff" />
<use x="72" y="144" xlink:href="#p" fill="#ffffff" />
<use x="96" y="144" xlink:href="#p" fill="#ffffff" />
<use x="168" y="144" xlink:href="#p" fill="#ffffff" />
<use x="180" y="144" xlink:href="#p" fill="#ffffff" />
<use x="192" y="144" xlink:href="#p" fill="#ffffff" />
<use x="240" y="144" xlink:href="#p" fill="#ffffff" />
<use x="264" y="144" xlink:href="#p" fill="#ffffff" />
<use x="276" y="144" xlink:href="#p" fill="#ffffff" />
<use x="300" y="144" xlink:href="#p" fill="#ffffff" />
<use x="324" y="144" xlink:href="#p" fill="#ffffff" />
<use x="336" y="144" xlink:href="#p" fill="#ffffff" />
<use x="348" y="144" xlink:href="#p" fill="#ffffff" />
<use x="360" y="144" xlink:href="#p" fill="#ffffff" />
<use x="48" y="156" xlink:href="#p" fill="#ffffff" />
<use x="72" y="156" xlink:href="#p" fill="#ffffff" />
<use x="108" y="156" xlink:href="#p" fill="#ffffff" />
<use x="132" y="156" xlink:href="#p" fill="#ffffff" />
<use x="156" y="156" xlink:href="#p" fill="#ffffff" />
<use x="180" y="156" xlink:href="#p" fill="#ffffff" />
<use x="192" y="156" xlink:href="#p" fill="#ffffff" />
<use x="228" y="156" xlink:href="#p" fill="#ffffff" />
<use x="240" y="156" xlink:href="#p" fill="#ffffff" />
<use x="252" y="156" xlink:href="#p" fill="#ffffff" />
<use x="288" y="156" xlink:href="#p" fill="#ffffff" />
<use x="324" y="156" xlink:href="#p" fill="#ffffff" />
<use x="348" y="156" xlink:href="#p" fill="#ffffff" />
<use x="36" y="168" xlink:href="#p" fill="#ffffff" />
<use x="48" y="168" xlink:href="#p" fill="#ffffff" />
<use x="72" y="168" xlink:href="#p" fill="#ffffff" />
<use x="84" y="168" xlink:href="#p" fill="#ffffff" />
<use x="96" y="168" xlink:href="#p" fill="#ffffff" />
<use x="144" y="168" xlink:href="#p" fill="#ffffff" />
<use x="180" y="168" xlink:href="#p" fill="#ffffff" />
<use x="192" y="168" xlink:href="#p" fill="#ffffff" />
<use x="216" y="168" xlink:href="#p" fill="#ffffff" />
<use x="228" y="168" xlink:href="#p" fill="#ffffff" />
<use x="252" y="168" xlink:href="#p" fill="#ffffff" />
<use x="288" y="168" xlink:href="#p" fill="#ffffff" />
<use x="36" y="180" xlink:href="#p" fill="#ffffff" />
<use x="60" y="180" xlink:href="#p" fill="#ffffff" />
<use x="72" y="180" xlink:href="#p" fill="#ffffff" />
<use x="120" y="180" xlink:href="#p" fill="#ffffff" />
<use x="132" y="180" xlink:href="#p" fill="#ffffff" />
<use x="168" y="180" xlink:href="#p" fill="#ffffff" />
<use x="180" y="180" xlink:href="#p" fill="#ffffff" />
<use x="216" y="180" xlink:href="#p" fill="#ffffff" />
<use x="228" y="180" xlink:href="#p" fill="#ffffff" />
<use x="264" y="180" xlink:href="#p" fill="#ffffff" />
<use x="276" y="180" xlink:href="#p" fill="#ffffff" />
<use x="288" y="180" xlink:href="#p" fill="#ffffff" />
<use x="300" y="180" xlink:href="#p" fill="#ffffff" />
<use x="348" y="180" xlink:href="#p" fill="#ffffff" />
<use x="360" y="180" xlink:href="#p" fill="#ffffff" />
<use x="24" y="192" xlink:href="#p" fill="#ffffff" />
<use x="48" y="192" xlink:href="#p" fill="#ffffff" />
<use x="60" y="192" xlink:href="#p" fill="#ffffff" />
<use x="84" y="192" xlink:href="#p" fill="#ffffff" />
<use x="96" y="192" xlink:href="#p" fill="#ffffff" />
<use x="108" y="192" xlink:href="#p" fill="#ffffff" />
<use x="144" y="192" xlink:href="#p" fill="#ffffff" />
<use x="168" y="192" xlink:href="#p" fill="#ffffff" />
<use x="180" y="192" xlink:href="#p" fill="#ffffff" />
<use x="204" y="192" xlink:href="#p" fill="#ffffff" />
<use x="216" y="192" xlink:href="#p" fill="#ffffff" />
<use x="264" y="192" xlink:href="#p" fill="#ffffff" />
<use x="288" y="192" xlink:href="#p" fill="#ffffff" />
<use x="336" y="192" xlink:href="#p" fill="#ffffff" />
<use x="348" y="192" xlink:href="#p" fill="#ffffff" />
<use x="360" y="192" xlink:href="#p" fill="#ffffff" />
<use x="24" y="204" xlink:href="#p" fill="#ffffff" />
<use x="48" y="204" xlink:href="#p" fill="#ffffff" />
<use x="60" y="204" xlink:href="#p" fill="#ffffff" />
<use x="72" y="204" xlink:href="#p" fill="#ffffff" />
<use x="132" y="204" xlink:href="#p" fill="#ffffff" />
<use x="180" y="204" xlink:href="#p" fill="#ffffff" />
<use x="192" y="204" xlink:href="#p" fill="#ffffff" />
<use x="204" y="204" xlink:href="#p" fill="#ffffff" />
<use x="228" y="204" xlink:href="#p" fill="#ffffff" />
<use x="240" y="204" xlink:href="#p" fill="#ffffff" />
<use x="252" y="204" xlink:href="#p" fill="#ffffff" />
<use x="300" y="204" xlink:href="#p" fill="#ffffff" />
<use x="312" y="204" xlink:href="#p" fill="#ffffff" />
<use x="360" y="204" xlink:href="#p" fill="#ffffff" />
<use x="36" y="216" xlink:href="#p" fill="#ffffff" />
<use x="84" y="216" xlink:href="#p" fill="#ffffff" />
<use x="96" y="216" xlink:href="#p" fill="#ffffff" />
<use x="120" y="216" xlink:href="#p" fill="#ffffff" />
<use x="144" y="216" xlink:href="#p" fill="#ffffff" />
<use x="168" y="216" xlink:href="#p" fill="#ffffff" />
<use x="180" y="216" xlink:href="#p" fill="#ffffff" />
<use x="216" y="216" xlink:href="#p" fill="#ffffff" />
<use x="252" y="216" xlink:href="#p" fill="#ffffff" />
<use x="264" y="216" xlink:href="#p" fill="#ffffff" />
<use x="276" y="216" xlink:href="#p" fill="#ffffff" />
<use x="288" y="216" xlink:href="#p" fill="#ffffff" />
<use x="300" y="216" xlink:href="#p" fill="#ffffff" />
<use x="324" y="216" xlink:href="#p" fill="#ffffff" />
<use x="348" y="216" xlink:href="#p" fill="#ffffff" />
<use x="84" y="228" xlink:href="#p" fill="#ffffff" />
<use x="108" y="228" xlink:href="#p" fill="#ffffff" />
<use x="168" y="228" xlink:href="#p" fill="#ffffff" />
<use x="180" y="228" xlink:href="#p" fill="#ffffff" />
<use x="204" y="228" xlink:href="#p" fill="#ffffff" />
<use x="264" y="228" xlink:href="#p" fill="#ffffff" />
<use x="300" y="228" xlink:href="#p" fill="#ffffff" />
<use x="336" y="228" xlink:href="#p" fill="#ffffff" />
<use x="348" y="228" xlink:href="#p" fill="#ffffff" />
<use x="360" y="228" xlink:href="#p" fill="#ffffff" />
<use x="24" y="240" xlink:href="#p" fill="#ffffff" />
<use x="48" y="240" xlink:href="#p" fill="#ffffff" />
<use x="72" y="240" xlink:href="#p" fill="#ffffff" />
<use x="96" y="240" xlink:href="#p" fill="#ffffff" />
<use x="108" y="240" xlink:href="#p" fill="#ffffff" />
<use x="132" y="240" xlink:href="#p" fill="#ffffff" />
<use x="192" y="240" xlink:href="#p" fill="#ffffff" />
<use x="228" y="240" xlink:href="#p" fill="#ffffff" />
<use x="264" y="240" xlink:href="#p" fill="#ffffff" />
<use x="276" y="240" xlink:href="#p" fill="#ffffff" />
<use x="300" y="240" xlink:href="#p" fill="#ffffff" />
<use x="324" y="240" xlink:href="#p" fill="#ffffff" />
<use x="348" y="240" xlink:href="#p" fill="#ffffff" />
<use x="360" y="240" xlink:href="#p" fill="#ffffff" />
<use x="36" y="252" xlink:href="#p" fill="#ffffff" />
<use x="60" y="252" xlink:href="#p" fill="#ffffff" />
<use x="144" y="252" xlink:href="#p" fill="#ffffff" />
<use x="168" y="252" xlink:href="#p" fill="#ffffff" />
<use x="180" y="252" xlink:href="#p" fill="#ffffff" />
<use x="192" y="252" xlink:href="#p" fill="#ffffff" />
<use x="204" y="252" xlink:href="#p" fill="#ffffff" />
<use x="216" y="252" xlink:href="#p" fill="#ffffff" />
<use x="228" y="252" xlink:href="#p" fill="#ffffff" />
<use x="288" y="252" xlink:href="#p" fill="#ffffff" />
<use x="312" y="252" xlink:href="#p" fill="#ffffff" />
<use x="348" y="252" xlink:href="#p" fill="#ffffff" />
<use x="24" y="264" xlink:href="#p" fill="#ffffff" />
<use x="48" y="264" xlink:href="#p" fill="#ffffff" />
<use x="60" y="264" xlink:href="#p" fill="#ffffff" />
<use x="72" y="264" xlink:href="#p" fill="#ffffff" />
<use x="96" y="264" xlink:href="#p" fill="#ffffff" />
<use x="120" y="264" xlink:href="#p" fill="#ffffff" />
<use x="168" y="264" xlink:href="#p" fill="#ffffff" />
<use x="216" y="264" xlink:href="#p" fill="#ffffff" />
<use x="228" y="264" xlink:href="#p" fill="#ffffff" />
<use x="252" y="264" xlink:href="#p" fill="#ffffff" />
<use x="264" y="264" xlink:href="#p" fill="#ffffff" />
<use x="276" y="264" xlink:href="#p" fill="#ffffff" />
<use x="288" y="264" xlink:href="#p" fill="#ffffff" />
<use x="300" y="264" xlink:href="#p" fill="#ffffff" />
<use x="312" y="264" xlink:href="#p" fill="#ffffff" />
<use x="360" y="264" xlink:href="#p" fill="#ffffff" />
<use x="120" y="276" xlink:href="#p" fill="#ffffff" />
<use x="156" y="276" xlink:href="#p" fill="#ffffff" />
<use x="168" y="276" xlink:href="#p" fill="#ffffff" />
<use x="192" y="276" xlink:href="#p" fill="#ffffff" />
<use x="216" y="276" xlink:href="#p" fill="#ffffff" />
<use x="228" y="276" xlink:href="#p" fill="#ffffff" />
<use x="252" y="276" xlink:href="#p" fill="#ffffff" />
<use x="264" y="276" xlink:href="#p" fill="#ffffff" />
<use x="312" y="276" xlink:href="#p" fill="#ffffff" />
<use x="348" y="276" xlink:href="#p" fill="#ffffff" />
<use x="360" y="276" xlink:href="#p" fill="#ffffff" />
<use x="24" y="288" xlink:href="#p" fill="#ffffff" />
<use x="36" y="288" xlink:href="#p" fill="#ffffff" />
<use x="48" y="288" xlink:href="#p" fill="#ffffff" />
<use x="60" y="288" xlink:href="#p" fill="#ffffff" />
<use x="72" y="288" xlink:href="#p" fill="#ffffff" />
<use x="84" y="288" xlink:href="#p" fill="#ffffff" />
<use x="96" y="288" xlink:href="#p" fill="#ffffff" />
<use x="120" y="288" xlink:href="#p" fill="#ffffff" />
<use x="132" y="288" xlink:href="#p" fill="#ffffff" />
<use x="144" y="288" xlink:href="#p" fill="#ffffff" />
<use x="156" y="288" xlink:href="#p" fill="#ffffff" />
<use x="168" y="288" xlink:href="#p" fill="#ffffff" />
<use x="216" y="288" xlink:href="#p" fill="#ffffff" />
<use x="228" y="288" xlink:href="#p" fill="#ffffff" />
<use x="240" y="288" xlink:href="#p" fill="#ffffff" />
<use x="252" y="288" xlink:href="#p" fill="#ffffff" />
<use x="264" y="288" xlink:href="#p" fill="#ffffff" />
<use x="288" y="288" xlink:href="#p" fill="#ffffff" />
<use x="312" y="288" xlink:href="#p" fill="#ffffff" />
<use x="336" y="288" xlink:href="#p" fill="#ffffff" />
<use x="348" y="288" xlink:href="#p" fill="#ffffff" />
<use x="360" y="288" xlink:href="#p" fill="#ffffff" />
<use x="24" y="300" xlink:href="#p" fill="#ffffff" />
<use x="96" y="300" xlink:href="#p" fill="#ffffff" />
<use x="180" y="300" xlink:href="#p" fill="#ffffff" />
<use x="216" y="300" xlink:href="#p" fill="#ffffff" />
<use x="228" y="300" xlink:href="#p" fill="#ffffff" />
<use x="240" y="300" xlink:href="#p" fill="#ffffff" />
<use x="264" y="300" xlink:href="#p" fill="#ffffff" />
<use x="312" y="300" xlink:href="#p" fill="#ffffff" />
<use x="360" y="300" xlink:href="#p" fill="#ffffff" />
<use x="24" y="312" xlink:href="#p" fill="#ffffff" />
<use x="48" y="312" xlink:href="#p" fill="#ffffff" />
<use x="60" y="312" xlink:href="#p" fill="#ffffff" />
<use x="72" y="312" xlink:href="#p" fill="#ffffff" />
<use x="96" y="312" xlink:href="#p" fill="#ffffff" />
<use x="120" y="312" xlink:href="#p" fill="#ffffff" />
<use x="132" y="312" xlink:href="#p" fill="#ffffff" />
<use x="144" y="312" xlink:href="#p" fill="#ffffff" />
<use x="156" y="312" xlink:href="#p" fill="#ffffff" />
<use x="168" y="312" xlink:href="#p" fill="#ffffff" />
<use x="204" y="312" xlink:href="#p" fill="#ffffff" />
<use x="228" y="312" xlink:href="#p" fill="#ffffff" />
<use x="264" y="312" xlink:href="#p" fill="#ffffff" />
<use x="276" y="312" xlink:href="#p" fill="#ffffff" />
<use x="288" y="312" xlink:href="#p" fill="#ffffff" />
<use x="300" y="312" xlink:href="#p" fill="#ffffff" />
<use x="312" y="312" xlink:href="#p" fill="#ffffff" />
<use x="324" y="312" xlink:href="#p" fill="#ffffff" />
<use x="360" y="312" xlink:href="#p" fill="#ffffff" />
<use x="24" y="324" xlink:href="#p" fill="#ffffff" />
<use x="48" y="324" xlink:href="#p" fill="#ffffff" />
<use x="60" y="324" xlink:href="#p" fill="#ffffff" />
<use x="72" y="324" xlink:href="#p" fill="#ffffff" />
<use x="96" y="324" xlink:href="#p" fill="#ffffff" />
<use x="132" y="324" xlink:href="#p" fill="#ffffff" />
<use x="156" y="324" xlink:href="#p" fill="#ffffff" />
<use x="192" y="324" xlink:href="#p" fill="#ffffff" />
<use x="216" y="324" xlink:href="#p" fill="#ffffff" />
<use x="240" y="324" xlink:href="#p" fill="#ffffff" />
<use x="252" y="324" xlink:href="#p" fill="#ffffff" />
<use x="312" y="324" xlink:href="#p" fill="#ffffff" />
<use x="336" y="324" xlink:href="#p" fill="#ffffff" />
<use x="348" y="324" xlink:href="#p" fill="#ffffff" />
<use x="360" y="324" xlink:href="#p" fill="#ffffff" />
<use x="24" y="336" xlink:href="#p" fill="#ffffff" />
<use x="48" y="336" xlink:href="#p" fill="#ffffff" />
<use x="60" y="336" xlink:href="#p" fill="#ffffff" />
<use x="72" y="336" xlink:href="#p" fill="#ffffff" />
<use x="96" y="336" xlink:href="#p" fill="#ffffff" />
<use x="120" y="336" xlink:href="#p" fill="#ffffff" />
<use x="132" y="336" xlink:href="#p" fill="#ffffff" />
<use x="144" y="336" xlink:href="#p" fill="#ffffff" />
<use x="168" y="336" xlink:href="#p" fill="#ffffff" />
<use x="192" y="336" xlink:href="#p" fill="#ffffff" />
<use x="216" y="336" xlink:href="#p" fill="#ffffff" />
<use x="228" y="336" xlink:href="#p" fill="#ffffff" />
<use x="240" y="336" xlink:href="#p" fill="#ffffff" />
<use x="276" y="336" xlink:href="#p" fill="#ffffff" />
<use x="312" y="336" xlink:href="#p" fill="#ffffff" />
<use x="324" y="336" xlink:href="#p" fill="#ffffff" />
<use x="336" y="336" xlink:href="#p" fill="#ffffff" />
<use x="360" y="336" xlink:href="#p" fill="#ffffff" />
<use x="24" y="348" xlink:href="#p" fill="#ffffff" />
<use x="96" y="348" xlink:href="#p" fill="#ffffff" />
<use x="120" y="348" xlink:href="#p" fill="#ffffff" />
<use x="168" y="348" xlink:href="#p" fill="#ffffff" />
<use x="180" y="348" xlink:href="#p" fill="#ffffff" />
<use x="192" y="348" xlink:href="#p" fill="#ffffff" />
<use x="204" y="348" xlink:href="#p" fill="#ffffff" />
<use x="228" y="348" xlink:href="#p" fill="#ffffff" />
<use x="240" y="348" xlink:href="#p" fill="#ffffff" />
<use x="264" y="348" xlink:href="#p" fill="#ffffff" />
<use x="276" y="348" xlink:href="#p" fill="#ffffff" />
<use x="288" y="348" xlink:href="#p" fill="#ffffff" />
<use x="300" y="348" xlink:href="#p" fill="#ffffff" />
<use x="324" y="348" xlink:href="#p" fill="#ffffff" />
<use x="348" y="348" xlink:href="#p" fill="#ffffff" />
<use x="24" y="360" xlink:href="#p" fill="#ffffff" />
<use x="36" y="360" xlink:href="#p" fill="#ffffff" />
<use x="48" y="360" xlink:href="#p" fill="#ffffff" />
<use x="60" y="360" xlink:href="#p" fill="#ffffff" />
<use x="72" y="360" xlink:href="#p" fill="#ffffff" />
<use x="84" y="360" xlink:href="#p" fill="#ffffff" />
<use x="96" y="360" xlink:href="#p" fill="#ffffff" />
<use x="132" y="360" xlink:href="#p" fill="#ffffff" />
<use x="144" y="360" xlink:href="#p" fill="#ffffff" />
<use x="192" y="360" xlink:href="#p" fill="#ffffff" />
<use x="216" y="360" xlink:href="#p" fill="#ffffff" />
<use x="228" y="360" xlink:href="#p" fill="#ffffff" />
<use x="240" y="360" xlink:href="#p" fill="#ffffff" />
<use x="252" y="360" xlink:href="#p" fill="#ffffff" />
<use x="264" y="360" xlink:href="#p" fill="#ffffff" />
<use x="288" y="360" xlink:href="#p" fill="#ffffff" />
<use x="312" y="360" xlink:href="#p" fill="#ffffff" />
<use x="348" y="360" xlink:href="#p" fill="#ffffff" />
<use x="360" y="360" xlink:href="#p" fill="#ffffff" />
</g>
</svg>
