<svg width="24" height="24" viewBox="0 0 24 24" fill="none" xmlns="http://www.w3.org/2000/svg">
  <g transform="translate(8, 0)">
    <path d="M4 1C3.20435 1 2.44129 1.31607 1.87868 1.87868C1.31607 2.44129 1 3.20435 1 4V12C1 12.7956 1.31607 13.5587 1.87868 14.1213C2.44129 14.6839 3.20435 15 4 15C4.79565 15 5.55871 14.6839 6.12132 14.1213C6.68393 13.5587 7 12.7956 7 12V4C7 3.20435 6.68393 2.44129 6.12132 1.87868C5.55871 1.31607 4.79565 1 4 1Z" stroke="#828282" stroke-width="2" stroke-linecap="round" stroke-linejoin="round"/>
  </g>
  <g transform="translate(4, 9)">
    <path d="M15 1V3C15 4.85652 14.2625 6.63699 12.9497 7.94975C11.637 9.2625 9.85652 10 8 10C6.14348 10 4.36301 9.2625 3.05025 7.94975C1.7375 6.63699 1 4.85652 1 3V1" stroke="#828282" stroke-width="2" stroke-linecap="round" stroke-linejoin="round"/>
  </g>
  <g transform="translate(11, 18)">
    <path d="M1 1V5" stroke="#828282" stroke-width="2" stroke-linecap="round" stroke-linejoin="round"/>
  </g>
  <g transform="translate(7, 22)">
    <path d="M1 1H9" stroke="#828282" stroke-width="2" stroke-linecap="round" stroke-linejoin="round"/>
  </g>
</svg>
