<svg xmlns="http://www.w3.org/2000/svg" width="16" height="16" fill="currentColor" viewBox="0 0 256 256"><path d="M230.64,49.36a32,32,0,0,0-45.26,0h0a31.9,31.9,0,0,0-5.16,6.76L152,48.42A32,32,0,0,0,97.37,25.36h0a32.06,32.06,0,0,0-5.76,37.41L57.67,93.32a32.05,32.05,0,0,0-40.31,4.05h0a32,32,0,0,0,42.89,47.41l70,51.36a32,32,0,1,0,47.57-14.69l27.39-77.59q1.38.12,2.76.12a32,32,0,0,0,22.63-54.62ZM189.31,208a16,16,0,1,1-3.51-17.82A16,16,0,0,1,189.31,208ZM208,88a16,16,0,0,1-10.68-4.11,16.24,16.24,0,0,1-5.32-11.24L160,80.47l-29.81,84.52A32.33,32.33,0,0,0,120,162.52L50,111.16a32,32,0,0,0,1.08-4.54L85,76.08a32.17,32.17,0,0,0,5.24,3.51,31.88,31.88,0,0,0,16.25,4.35,32.12,32.12,0,0,0,5.4-.46l29.71,8.18a32.12,32.12,0,0,0,5.55,10.81,31.87,31.87,0,0,0,24.21,10.89,32.37,32.37,0,0,0,6.13-.6l27.39-77.59A16,16,0,1,1,208,88ZM80,56A16,16,0,1,1,96,72,16,16,0,0,1,80,56ZM40,128a16,16,0,1,1,16-16A16,16,0,0,1,40,128Z"/></svg>
